<svg xmlns="http://www.w3.org/2000/svg" viewBox="0 0 711.2 383.5">
  <g fill="#777BB3">
    <path d="M355.6 191.75c-89.736 0-162.558-36.5-162.558-81.5s72.822-81.5 162.558-81.5c89.735 0 162.557 36.5 162.557 81.5s-72.822 81.5-162.557 81.5zm0-151.25c-81.133 0-147.558 31.184-147.558 69.75s66.425 69.75 147.558 69.75c81.132 0 147.557-31.184 147.557-69.75s-66.425-69.75-147.557-69.75z"/>
    <ellipse cx="355.6" cy="110.25" rx="147.558" ry="69.75"/>
  </g>
  <g fill="#777BB3">
    <path d="M147.558 191.75C57.822 191.75 0 228.25 0 273.25s57.822 81.5 147.558 81.5c89.735 0 162.557-36.5 162.557-81.5s-72.822-81.5-162.557-81.5zm0 151.25c-81.133 0-132.558-31.184-132.558-69.75s51.425-69.75 132.558-69.75c81.132 0 147.557 31.184 147.557 69.75s-66.425 69.75-147.557 69.75z"/>
    <ellipse cx="147.558" cy="273.25" rx="132.558" ry="69.75"/>
  </g>
  <g fill="#777BB3">
    <path d="M563.641 191.75c-89.735 0-147.557 36.5-147.557 81.5s57.822 81.5 147.557 81.5c89.736 0 147.558-36.5 147.558-81.5s-57.822-81.5-147.558-81.5zm0 151.25c-81.132 0-132.557-31.184-132.557-69.75s51.425-69.75 132.557-69.75c81.133 0 132.558 31.184 132.558 69.75s-51.425 69.75-132.558 69.75z"/>
    <ellipse cx="563.641" cy="273.25" rx="132.558" ry="69.75"/>
  </g>
  <g fill="#FFF">
    <path d="M102.635 296.133h-16.532l3.367-17.324c.936-4.817.177-8.383-2.256-10.604-2.385-2.177-6.636-3.282-12.625-3.282H61.925l-7.898 31.21H37.375l19.55-77.305h16.651l-5.047 19.997h13.664c10.377 0 17.964 2.063 23.193 6.31 5.298 4.302 7.307 11.12 5.976 20.263l-4.259 21.735h-4.468zm67.328-13.411c-2.01 7.966-5.924 14.17-11.641 18.436-5.657 4.22-13.061 6.36-22.011 6.36-8.949 0-15.375-2.14-19.096-6.36-3.667-4.158-4.971-10.362-3.874-18.436l3.103-12.293c2.011-7.967 5.952-14.17 11.716-18.437 5.821-4.265 13.24-6.425 22.054-6.425 8.813 0 15.212 2.16 19.023 6.425 3.75 4.199 5.067 10.403 3.914 18.437l-3.188 12.293zm-15.867-13.638c.936-3.707.658-6.596-.825-8.583-1.462-1.955-4.117-2.944-7.889-2.944-3.772 0-6.976.989-9.522 2.944-2.518 1.933-4.439 4.822-5.709 8.583l-3.188 12.638c-.937 3.707-.659 6.596.825 8.583 1.462 1.954 4.118 2.943 7.89 2.943 3.771 0 6.975-.989 9.522-2.943 2.518-1.933 4.438-4.822 5.708-8.583l3.188-12.638zm87.928 27.049h-16.532l3.367-17.324c.936-4.817.177-8.383-2.257-10.604-2.384-2.177-6.635-3.282-12.624-3.282h-12.664l-7.898 31.21h-16.651l19.55-77.305h16.651l-5.047 19.997h13.663c10.378 0 17.965 2.063 23.194 6.31 5.298 4.302 7.306 11.12 5.976 20.263l-4.26 21.735h-4.468z"/>
  </g>
</svg>
