<svg xmlns="http://www.w3.org/2000/svg" viewBox="0 0 256 256">
  <path fill="#003545" d="M128 8C57.308 8 0 65.308 0 136c0 70.692 57.308 128 128 128 70.692 0 128-57.308 128-128C256 65.308 198.692 8 128 8zm0 232c-57.346 0-104-46.654-104-104S70.654 32 128 32s104 46.654 104 104-46.654 104-104 104z"/>
  <path fill="#C0765A" d="M195.5 104.5c-14.5-23-38.5-38.5-67.5-38.5s-53 15.5-67.5 38.5c-3 4.5-1.5 10.5 3 13.5 4.5 3 10.5 1.5 13.5-3 11.5-18.5 31-31.5 51-31.5s39.5 13 51 31.5c1.5 2.5 4.5 4 7 4 1.5 0 3.5-.5 5-1.5 4.5-3 6-9 3-13.5z"/>
  <path fill="#003545" d="M128 152c-13.255 0-24-10.745-24-24s10.745-24 24-24 24 10.745 24 24-10.745 24-24 24zm0-36c-6.627 0-12 5.373-12 12s5.373 12 12 12 12-5.373 12-12-5.373-12-12-12z"/>
  <circle fill="#003545" cx="92" cy="128" r="8"/>
  <circle fill="#003545" cx="164" cy="128" r="8"/>
  <path fill="#C0765A" d="M164 180H92c-6.627 0-12 5.373-12 12s5.373 12 12 12h72c6.627 0 12-5.373 12-12s-5.373-12-12-12z"/>
</svg>
