<svg xmlns="http://www.w3.org/2000/svg" viewBox="0 0 256 133">
  <defs>
    <linearGradient id="mysql-gradient" x1="12.959%" x2="79.639%" y1="12.039%" y2="78.201%">
      <stop offset="0%" stop-color="#00546B"/>
      <stop offset="100%" stop-color="#00758F"/>
    </linearGradient>
  </defs>
  <path fill="url(#mysql-gradient)" d="M235.648 194.212c-13.918-.347-24.705 1.045-33.752 4.872-2.61 1.043-6.786 1.044-7.134 4.35 1.392 1.392 1.566 3.654 2.784 5.567 2.09 3.479 5.741 8.177 9.047 10.614 3.653 2.783 7.308 5.566 11.134 8.002 6.786 4.176 14.442 6.611 21.053 10.787 3.829 2.434 7.654 5.568 11.482 8.177 1.914 1.39 3.131 3.654 5.568 4.523v-.521c-1.219-1.566-1.565-3.828-2.784-5.568-1.738-1.74-3.48-3.306-5.22-5.046-5.045-6.784-11.308-12.7-18.093-17.571-5.393-3.828-17.048-9.047-19.234-15.485 0 0-.175-.173-.348-.347 3.827-.348 8.35-1.565 12.005-2.436 5.915-1.568 11.308-1.218 17.396-2.785 2.783-.696 5.567-1.566 8.35-2.436v-1.565c-3.13-3.132-5.392-7.307-8.698-10.265-8.873-7.657-18.617-15.137-28.838-21.05-5.566-3.306-12.528-5.566-18.617-8.35-2.262-1.043-6.09-1.565-7.482-3.306-3.131-3.827-4.698-8.699-7.133-13.398-5.044-9.57-9.919-20.182-14.267-30.272-3.13-6.786-5.044-13.572-8.872-19.834-17.92-29.577-37.328-47.497-67.598-65.242-6.438-3.653-14.093-5.219-22.27-7.132-4.348-.175-8.699-.522-13.048-.697-2.784-1.218-5.568-4.523-8.004-6.089C34.006 4.573 8.429-8.996 1.122 8.924c-4.698 11.308 6.96 22.442 10.96 28.056 2.96 4.001 6.786 8.524 8.874 13.05 1.391 3.132 1.565 6.264 2.956 9.57 3.13 8.351 5.916 17.398 9.92 25.054 2.088 3.653 4.35 7.482 6.787 10.787 1.564 2.088 4.349 2.957 5.045 6.089-2.784 3.829-3.306 9.744-5.045 14.615-7.654 21.401-4.698 48.093 5.567 63.927 3.132 4.872 10.438 15.312 20.354 11.307 8.872-3.306 6.786-13.57 9.222-22.617 .524-2.262.176-3.826 1.219-5.392v.348c2.436 4.87 4.871 9.569 7.133 14.44 5.394 8.524 14.788 17.399 22.617 23.315 4.177 3.132 7.482 8.524 12.702 10.438v-.523h-.349c-1.044-1.566-2.61-2.262-4.001-3.48-3.131-3.13-6.612-6.958-9.047-10.438-7.306-9.744-13.745-20.353-19.486-31.665-2.784-5.392-5.22-11.308-7.481-16.701-1.045-2.088-1.045-5.22-2.784-6.263-2.61 3.827-6.437 7.133-8.351 11.83-3.304 7.481-3.653 16.702-4.871 26.27-.696.176-.349 0-.697.347-6.959-1.565-9.395-8.524-12.005-14.615-6.612-15.133-7.83-39.444-2.088-56.714 1.565-4.523 8.525-18.792 5.742-22.967-1.39-3.482-6.263-5.568-8.699-8.35-2.959-3.302-6.263-7.306-8.351-11.131-4.872-9.396-7.133-19.834-12.526-29.23-2.435-4.350-6.784-8.872-10.265-12.704-3.826-4.349-8.178-7.133-11.308-12.528-1.218-2.088-2.262-5.392-.696-7.657.524-1.565 1.393-2.263 2.96-2.609 2.784-1.565 10.787 1.218 13.572 2.262 7.654 2.785 13.92 5.394 20.182 9.92 2.958 2.09 6.09 6.091 9.744 7.133h4.35c6.787 1.565 14.093.871 20.354 2.784 10.96 3.652 20.877 9.047 29.402 15.312 25.75 18.967 46.758 46.062 61.152 78.25 2.262 5.046 3.305 9.918 5.393 15.138 4.176 10.438 9.57 21.05 14.093 31.143 4.349 9.919 8.699 19.835 14.787 28.188 3.305 4.523 16.181 6.958 21.923 9.395 4.001 1.565 10.438 3.131 14.093 5.218 6.959 4.001 13.92 8.872 20.531 13.396 3.305 2.262 13.398 7.133 13.92 11.481z"/>
  <path fill="#E48E00" d="M58.186 43.022c-2.784 0-4.872.347-6.959.872v.347h.348c1.393 2.61 3.827 4.349 5.567 6.61 1.395 2.781 2.784 5.566 4.178 8.347.175-.175.347-.348.347-.348 2.437-1.741 3.654-4.524 3.654-8.698-1.044-1.217-1.218-2.435-2.261-3.653-1.394-1.913-4.003-3.131-4.874-5.477z"/>
</svg>
