<svg xmlns="http://www.w3.org/2000/svg" viewBox="0 0 432.071 445.383">
  <g fill="#336791">
    <path d="M323.205 324.227c2.833-23.601 1.984-27.062 19.563-23.239l4.463.392c13.517.615 31.199-2.174 41.587-7 22.362-10.376 35.622-27.7 13.572-23.148-50.297 10.376-53.755-6.655-53.755-6.655 53.111-78.803 75.313-178.836 56.149-203.322C352.514-5.534 262.036 26.049 260.522 26.869l-.482.089c-9.938-2.062-21.06-3.294-33.554-3.496-22.761-.374-40.032 5.967-53.133 15.904 0 0-161.408-66.498-153.899 83.628 1.597 31.936 45.777 241.655 98.47 178.31 19.259-23.163 37.871-42.748 37.871-42.748 9.242 6.14 20.307 9.272 31.912 8.147l.897-.765c-.281 2.876-.157 5.689.359 9.019-13.572 15.167-9.584 17.83-36.723 23.416-27.457 5.659-11.326 15.734-.797 18.367 12.768 3.193 42.305 7.716 62.268-20.224l-.795 3.188c5.325 4.26 4.965 30.619 5.72 49.452.756 18.834 1.897 36.449 3.785 48.366 1.858 11.918 4.982 26.286 15.905 35.085 10.645 8.568 27.535 8.798 36.457-4.098 1.429-2.075 1.589-3.542 2.061-9.876.472-6.333.832-13.833 1.184-20.167s1.032-10.667 1.032-10.667l.265-.133c.265-.133 1.897-19.764 3.326-26.75 1.457-6.987 3.069-12.837 5.721-18.893 2.652-6.056 5.72-12.837 5.72-12.837z"/>
    <path fill="#FFF" d="M402.395 271.23c-50.302 10.376-53.76-6.655-53.76-6.655 53.111-78.808 75.313-178.843 56.153-203.326-52.27-66.785-142.752-35.2-144.262-34.38l-.486.089c-9.938-2.063-21.06-3.292-33.56-3.496-22.761-.373-40.026 5.967-53.127 15.902 0 0-161.411-66.495-153.904 83.63 1.597 31.938 45.776 241.657 98.471 178.31 19.26-23.163 37.869-42.748 37.869-42.748 9.243 6.14 20.308 9.272 31.908 8.147l.901-.765c-.28 2.876-.152 5.689.361 9.019-13.575 15.167-9.586 17.83-36.723 23.416-27.459 5.659-11.328 15.734-.796 18.367 12.768 3.193 42.307 7.716 62.266-20.224l-.796 3.188c5.319 4.26 9.054 27.711 8.428 48.969-.626 21.259-1.044 35.854.361 47.951 1.405 12.098 4.154 39.126 14.894 48.967 10.641 9.842 27.666 12.315 36.587-.479 8.921-12.794 8.165-35.579 8.426-47.951.262-12.371-.158-21.259-.158-21.259s.789-1.096.789-3.188c0-2.091 1.745-35.579 3.456-50.719 1.711-15.14.263-27.711 3.456-40.747 3.193-13.037 6.386-42.088 6.386-42.088h.789c.789 0 1.875 19.066 3.856 27.711 1.982 8.644 4.877 30.13 7.808 40.748 2.93 10.617 5.598 18.353 5.598 18.353s3.193 6.997 5.598 14.878c2.406 7.881 4.02 13.037 6.001 20.936 1.982 7.9 3.193 11.566 3.193 11.566s1.053 8.644 2.754 18.353c1.701 9.709 4.351 17.353 7.544 24.878 3.193 7.524 5.598 12.68 12.767 17.836 7.169 5.157 28.69 14.051 35.859-2.092 7.169-16.144 1.982-27.711 3.963-40.747 1.982-13.036.789-18.353 1.578-31.39.789-13.036 2.667-25.783 2.667-25.783z"/>
  </g>
</svg>
