<svg xmlns="http://www.w3.org/2000/svg" viewBox="0 0 256 220">
  <g>
    <path fill="#A41E11" d="M245.97 168.943c-13.662 7.121-84.434 36.22-99.501 44.075-15.067 7.856-23.437 7.78-35.34 2.09-11.902-5.69-87.216-36.112-100.783-42.597C3.566 169.271 0 166.535 0 163.951v-25.876s98.05-21.345 113.879-27.024c15.828-5.679 21.32-5.884 34.79-.95 13.472 4.936 94.018 19.468 107.331 24.344l-.006 25.51c.002 2.558-3.07 5.364-10.024 8.988"/>
    <path fill="#D82C20" d="M245.965 143.22c-13.661 7.118-84.431 36.218-99.498 44.072-15.066 7.857-23.436 7.78-35.338 2.09-11.903-5.686-87.214-36.113-100.78-42.594-13.566-6.485-13.85-10.948-.524-16.166 13.326-5.22 88.224-34.605 104.055-40.284 15.828-5.677 21.319-5.884 34.789-.948 13.471 4.934 83.819 32.935 97.13 37.81 13.316 4.881 13.827 8.9.166 16.02"/>
    <path fill="#A41E11" d="M245.97 127.074c-13.662 7.122-84.434 36.22-99.501 44.078-15.067 7.853-23.437 7.777-35.34 2.087-11.902-5.687-87.216-36.112-100.783-42.597C3.566 127.402 0 124.67 0 122.085V96.206s98.05-21.344 113.879-27.023c15.828-5.679 21.32-5.885 34.79-.95C162.142 73.168 242.688 87.697 256 92.574l-.006 25.513c.002 2.557-3.07 5.363-10.024 8.987"/>
    <path fill="#D82C20" d="M245.965 101.351c-13.661 7.12-84.431 36.218-99.498 44.075-15.066 7.854-23.436 7.777-35.338 2.087-11.903-5.686-87.214-36.112-100.78-42.594-13.566-6.483-13.85-10.947-.524-16.167C23.151 83.535 98.05 54.148 113.88 48.47c15.828-5.678 21.319-5.884 34.789-.949 13.471 4.934 83.819 32.933 97.13 37.81 13.316 4.88 13.827 8.9.166 16.02"/>
    <path fill="#A41E11" d="M245.97 83.653c-13.662 7.12-84.434 36.22-99.501 44.078-15.067 7.854-23.437 7.777-35.34 2.087-11.902-5.687-87.216-36.113-100.783-42.595C3.566 83.98 0 81.247 0 78.665V52.786s98.05-21.344 113.879-27.023c15.828-5.679 21.32-5.884 34.79-.949 13.473 4.935 94.018 19.464 107.331 24.341l-.006 25.513c.002 2.555-3.07 5.361-10.024 8.985"/>
    <path fill="#D82C20" d="M245.965 57.93c-13.661 7.12-84.431 36.22-99.498 44.074-15.066 7.854-23.436 7.777-35.338 2.09C99.227 98.404 23.915 67.977 10.349 61.497c-13.566-6.483-13.85-10.947-.524-16.167C23.151 40.113 98.05 10.728 113.88 5.05c15.828-5.679 21.319-5.885 34.789-.95C162.142 8.936 232.49 36.934 245.8 41.81c13.316 4.88 13.827 8.9.166 16.02"/>
    <path fill="#FFF" d="M159.283 32.757l-22.03 3.075 1.433 32.46 21.473-3.075-.876-32.46M131.032 90.275L89.955 73.238l58.86-13.473 40.703 17.372-58.486 13.138M75.737 80.39L51.81 74.378l27.65 13.436 23.926 5.72L75.737 80.39"/>
    <path fill="#7A0C00" d="M245.97 127.074c-13.662 7.122-84.434 36.22-99.501 44.078-15.067 7.853-23.437 7.777-35.34 2.087-11.902-5.687-87.216-36.112-100.783-42.597C3.566 127.402 0 124.67 0 122.085V96.206s98.05-21.344 113.879-27.023c15.828-5.679 21.32-5.885 34.79-.95C162.142 73.168 242.688 87.697 256 92.574l-.006 25.513c.002 2.557-3.07 5.363-10.024 8.987"/>
    <path fill="#AD2115" d="M245.965 101.351c-13.661 7.12-84.431 36.218-99.498 44.075-15.066 7.854-23.436 7.777-35.338 2.087-11.903-5.686-87.214-36.112-100.78-42.594-13.566-6.483-13.85-10.947-.524-16.167C23.151 83.535 98.05 54.148 113.88 48.47c15.828-5.678 21.319-5.884 34.789-.949 13.471 4.934 83.819 32.933 97.13 37.81 13.316 4.88 13.827 8.9.166 16.02"/>
  </g>
</svg>
